<svg xmlns="http://www.w3.org/2000/svg" viewBox="0 0 304.65 171.94"><defs><style>.cls-1{fill:#faa220;}.cls-2{fill:none;stroke:#231f20;stroke-miterlimit:10;stroke-width:2.07px;}.cls-3{fill:#d78028;}.cls-4{fill:#fff;}</style></defs><title>Asset 1</title><g id="Layer_2" data-name="Layer 2"><g id="Layer_1-2" data-name="Layer 1"><path class="cls-1" d="M293.48,79.72a14.48,14.48,0,0,0-6.29,1.38A34.75,34.75,0,0,1,272,84.67h-.67c-.49-12.17-3.94-21.59-8.12-21.59H45.55c-4.18,0-7.63,9.42-8.12,21.58a38.53,38.53,0,0,1-16-3.66,14.87,14.87,0,0,0-7.7-1.2c-4.95.49-8.9,3.39-9.47,6.93-.78,4.82,4.49,8.9,11.09,8.9a14.34,14.34,0,0,0,6.29-1.39,34.74,34.74,0,0,1,15.17-3.56h.67c.49,12.17,3.94,21.59,8.12,21.59H263.23c4.18,0,7.63-9.42,8.12-21.59a38.84,38.84,0,0,1,16,3.66,14.87,14.87,0,0,0,7.7,1.21c4.95-.5,8.9-3.4,9.47-6.94C305.35,83.8,300.08,79.72,293.48,79.72Z"/><path class="cls-2" d="M290.38,76.62A14.48,14.48,0,0,0,284.09,78a34.75,34.75,0,0,1-15.17,3.57h-.66c0,1,.06,2,.06,3s0,2-.06,3a38.83,38.83,0,0,1,16,3.66,14.87,14.87,0,0,0,7.7,1.21c4.95-.5,8.9-3.4,9.47-6.94C302.25,80.7,297,76.62,290.38,76.62Z"/><path class="cls-2" d="M34.33,81.56a38.53,38.53,0,0,1-16-3.66,14.85,14.85,0,0,0-7.69-1.2c-5,.49-8.91,3.39-9.48,6.94C.34,88.45,5.6,92.53,12.2,92.53a14.3,14.3,0,0,0,6.29-1.39,34.74,34.74,0,0,1,15.17-3.56h.67c0-1-.07-2-.07-3S34.29,82.55,34.33,81.56Z"/><path class="cls-2" d="M268.26,81.57C267.76,69.4,264.31,60,260.13,60H42.45c-4.18,0-7.63,9.42-8.12,21.58,0,1-.07,2-.07,3s0,2,.07,3c.49,12.17,3.94,21.59,8.12,21.59H260.13c4.18,0,7.63-9.42,8.13-21.59,0-1,.06-2,.06-3S268.3,82.55,268.26,81.57Z"/><path class="cls-3" d="M269.49,171.94c19.42,0,35.16-11.67,35.16-26.06s-15.74-26-35.16-26c-13.14,0-24.59,5.34-30.63,13.25a22.71,22.71,0,0,1-18.13,8.66h-122V150h122a22.71,22.71,0,0,1,18.13,8.66C244.9,166.6,256.35,171.94,269.49,171.94Z"/><path class="cls-2" d="M266.39,168.84c19.42,0,35.16-11.66,35.16-26.06s-15.74-26-35.16-26c-13.14,0-24.59,5.34-30.63,13.25a22.71,22.71,0,0,1-18.13,8.66h-122v8.29h122a22.71,22.71,0,0,1,18.13,8.66C241.8,163.5,253.25,168.84,266.39,168.84Z"/><path class="cls-3" d="M10.56,18H43.49a3.68,3.68,0,0,1,3.68,3.69h0a3.68,3.68,0,0,1-3.68,3.68H8.93a4.81,4.81,0,0,0-4.8,4.79h0A4.81,4.81,0,0,0,8.93,35H43.49a3.68,3.68,0,0,1,3.68,3.68h0a3.68,3.68,0,0,1-3.68,3.68H10.57a2.46,2.46,0,0,0-1.65,4.28c6.44,5.87,16.27,9.63,27.27,9.63,13.11,0,24.53-5.32,30.58-13.19A22.86,22.86,0,0,1,85,34.33h122V26.05H84.88a22.61,22.61,0,0,1-18.06-8.67c-6-7.91-17.49-13.25-30.63-13.25-11,0-20.83,3.75-27.28,9.63A2.45,2.45,0,0,0,10.56,18Z"/><path class="cls-2" d="M7.46,14.93H40.39a3.68,3.68,0,0,1,3.68,3.69h0a3.68,3.68,0,0,1-3.68,3.68H5.83A4.81,4.81,0,0,0,1,27.09H1a4.81,4.81,0,0,0,4.8,4.79H40.39a3.68,3.68,0,0,1,3.68,3.68h0a3.68,3.68,0,0,1-3.68,3.68H7.47a2.47,2.47,0,0,0-1.65,4.29c6.44,5.87,16.27,9.62,27.27,9.62,13.11,0,24.53-5.31,30.58-13.19a22.86,22.86,0,0,1,18.19-8.73h122V23H81.78a22.61,22.61,0,0,1-18.06-8.67C57.68,6.37,46.23,1,33.09,1c-11,0-20.83,3.76-27.28,9.63A2.45,2.45,0,0,0,7.46,14.93Z"/><path class="cls-4" d="M89.59,96.19a1.66,1.66,0,0,1-1.3-.92l0-.06v-.08a36.6,36.6,0,0,0-1.86-8.26c-.23-.72-.42-1.37-.59-1.93v9.93a1.58,1.58,0,0,1-.2.84.91.91,0,0,1-.81.37,1.06,1.06,0,0,1-.83-.33,1.14,1.14,0,0,1-.27-.76l.11-17.81V73.5a.92.92,0,0,1,.23-.68c.15-.16.44-.23,1-.23a3.17,3.17,0,0,1,1.37.33,3.41,3.41,0,0,1,1.15.86A5.54,5.54,0,0,1,88.27,75a6.5,6.5,0,0,1,.61,2.82,9.84,9.84,0,0,1-.74,3.44c-.07.14-.18.43-.36.86l-.3.77a21.43,21.43,0,0,0,1.13,5.62c.25.79.61,1.89,1.08,3.27s.76,2.28.88,2.65v.15c0,.8-.1,1.21-.34,1.39A1.12,1.12,0,0,1,89.59,96.19ZM85.7,80.35v.76c.18-.2.36-.42.53-.65l.46-2.53a1.91,1.91,0,0,0,0-.43,6.22,6.22,0,0,0-.28-1.67,2.82,2.82,0,0,0-.6-1.19Z"/><path class="cls-4" d="M84,94.75l.11-17.57V73.5a.68.68,0,0,1,.15-.5,1.22,1.22,0,0,1,.77-.15,2.9,2.9,0,0,1,1.25.3,3.24,3.24,0,0,1,1.08.8A5.77,5.77,0,0,1,88,75.12a6.28,6.28,0,0,1,.59,2.71,9.63,9.63,0,0,1-.73,3.35c-.06.13-.18.42-.36.86l-.3.77a20.8,20.8,0,0,0,1.12,5.78c.26.8.62,1.9,1.09,3.29s.76,2.27.87,2.64v.07c0,.67-.07,1.07-.23,1.18a.86.86,0,0,1-.5.17q-.56,0-1.08-.81V95a37.83,37.83,0,0,0-1.87-8.24c-.53-1.67-.9-2.92-1.1-3.73V94.87a1.27,1.27,0,0,1-.16.7.64.64,0,0,1-.59.25.79.79,0,0,1-.63-.24A.87.87,0,0,1,84,95ZM85.6,74.23l-.16,6.11q0,.93,0,1.38a9.23,9.23,0,0,0,1-1.16L86.94,78a2.12,2.12,0,0,0,0-.47,6.81,6.81,0,0,0-.29-1.74C86.42,74.83,86.06,74.32,85.6,74.23Z"/><path class="cls-4" d="M94,96.28a1.35,1.35,0,0,1-.89-.33,1.16,1.16,0,0,1-.43-.84v-.8l-.19-5,.21-8.76L92.56,78c0-2,.82-2.4,1.52-2.4a9.16,9.16,0,0,1,2.26.39c1.06.28,1.58.67,1.58,1.2s-.35.93-1,1.18l-.09,0-.08,0a13.56,13.56,0,0,0-1.91-.51q0,.5,0,1l-.14,4.3a1,1,0,0,1,0,.2l.85,0c1.42,0,1.72.59,1.72,1.08a1,1,0,0,1-.35.75,1.18,1.18,0,0,1-.84.31,7.28,7.28,0,0,1-.9-.06h-.45c0,.68.07,1.35.07,2l-.14,5.44c0,.81,0,1.21,0,1.41l2-.07c1.23,0,1.41.62,1.41,1a.94.94,0,0,1-.53.89,2.24,2.24,0,0,1-1,.23Z"/><path class="cls-4" d="M93,80.5,92.82,78c0-1.41.42-2.12,1.26-2.12a9.5,9.5,0,0,1,2.19.37c.93.25,1.39.57,1.39,1s-.29.72-.88.94a12,12,0,0,0-2.27-.57c0,.43,0,.86,0,1.29l-.13,4.3s0,.17.08.46l1.07,0c1,0,1.45.27,1.45.82a.76.76,0,0,1-.26.56,1,1,0,0,1-.67.24c-.27,0-.56,0-.87-.05h-.76c.06.76.09,1.51.09,2.26l-.13,5.43a11.19,11.19,0,0,0,0,1.68l2.21-.07c.76,0,1.14.24,1.14.73a.7.7,0,0,1-.39.66,1.85,1.85,0,0,1-.89.2H94a1.08,1.08,0,0,1-.72-.27A.88.88,0,0,1,93,95.1v-.79l-.19-5.06Z"/><path class="cls-4" d="M112.26,97.45c-.79,0-1.19-.71-1.19-2.13V91.49c0-.88-.07-2.18-.21-3.89s-.22-2.88-.22-3.48,0-1,0-1.55l-.42,1.77c-2.33,9.88-3.1,9.88-3.51,9.88a1.47,1.47,0,0,1-1.1-.43,1.57,1.57,0,0,1-.4-1.12,31.78,31.78,0,0,0-1.11-5.78c-.55-2.16-1-4-1.47-5.39-.32,6.23-.49,10.54-.49,12.83l0,.88a1.39,1.39,0,0,1-.26.91,1,1,0,0,1-.84.35,1.46,1.46,0,0,1-.88-.26.89.89,0,0,1-.38-.71c0-2,.16-5.13.47-9.18s.45-7,.46-9.07a1.37,1.37,0,0,1-.18-.69.8.8,0,0,1,.51-.75,2.12,2.12,0,0,1,.9-.2c.32,0,.84,0,2.8,6.2,1,3.21,1.72,5.65,2.11,7.29.08-.32.17-.71.28-1.16.28-1.18.57-2.42.88-3.7s.66-2.6,1-3.9c1.15-4.13,1.85-4.69,2.38-4.69a1.68,1.68,0,0,1,.89.26.93.93,0,0,1,.47.82c0,1.43.06,3.6.19,6.45s.19,5,.19,6.26l-.07,3.17c0,.22.06.93.17,2.12l.06.58a1.77,1.77,0,0,1,.13.71,1.67,1.67,0,0,1-.32.91A1.11,1.11,0,0,1,112.26,97.45Z"/><path class="cls-4" d="M111.33,95.32V91.49c0-.89-.07-2.19-.22-3.91s-.22-2.87-.22-3.46,0-1.31.06-2.13.06-1.44.06-1.85c-.09.26-.42,1.64-1,4.14Q107.73,94,106.75,94a1.2,1.2,0,0,1-.91-.35,1.31,1.31,0,0,1-.33-.94,31.52,31.52,0,0,0-1.12-5.84q-1.12-4.42-1.9-6.78-.57,10.56-.57,14.28l0,.89a1.14,1.14,0,0,1-.21.74.77.77,0,0,1-.64.25,1.18,1.18,0,0,1-.72-.21.64.64,0,0,1-.28-.5c0-2,.16-5.09.46-9.16s.46-7.12.46-9.16a1.18,1.18,0,0,1-.17-.62.56.56,0,0,1,.36-.52,1.78,1.78,0,0,1,.79-.17c.43,0,1.28,2,2.55,6a85.89,85.89,0,0,1,2.34,8.33c.09-.3.27-1,.55-2.22s.57-2.42.88-3.69.66-2.59,1-3.89q1.26-4.52,2.13-4.51a1.34,1.34,0,0,1,.75.22.69.69,0,0,1,.35.6c0,1.44.06,3.6.19,6.46s.19,5,.19,6.25l-.07,3.16v0c0,.22.06.93.17,2.13l.06.59a1.72,1.72,0,0,1,.13.68,1.38,1.38,0,0,1-.27.76.84.84,0,0,1-.74.41C111.64,97.19,111.33,96.57,111.33,95.32Z"/><path class="cls-4" d="M117.29,96.28a1.32,1.32,0,0,1-.88-.33,1.09,1.09,0,0,1-.43-.84v-.8l-.19-5,.2-8.76L115.83,78c0-2,.83-2.4,1.52-2.4a9.09,9.09,0,0,1,2.26.39c1.06.28,1.58.67,1.58,1.2s-.35.93-1,1.18l-.08,0-.09,0a13.56,13.56,0,0,0-1.91-.51q0,.5,0,1l-.13,4.3a1.46,1.46,0,0,0,0,.2l.84,0c1.42,0,1.72.59,1.72,1.08a1,1,0,0,1-.35.75,1.16,1.16,0,0,1-.84.31,7.41,7.41,0,0,1-.9-.06H118c0,.68.07,1.35.07,2L118,92.83c0,.81,0,1.21,0,1.41l2-.07c1.22,0,1.4.62,1.4,1a.94.94,0,0,1-.53.89,2.24,2.24,0,0,1-1,.23Z"/><path class="cls-4" d="M116.25,80.5,116.09,78c0-1.41.42-2.12,1.26-2.12a9.5,9.5,0,0,1,2.19.37c.93.25,1.39.57,1.39,1s-.29.72-.88.94a12,12,0,0,0-2.26-.57c0,.43,0,.86,0,1.29l-.13,4.3s0,.17.09.46l1.06,0c1,0,1.45.27,1.45.82a.76.76,0,0,1-.26.56,1,1,0,0,1-.67.24c-.27,0-.56,0-.87-.05h-.76c.06.76.09,1.51.09,2.26l-.13,5.43a8.88,8.88,0,0,0,.06,1.68l2.21-.07c.76,0,1.14.24,1.14.73a.71.71,0,0,1-.4.66,1.85,1.85,0,0,1-.89.2h-2.53a1.11,1.11,0,0,1-.72-.27.83.83,0,0,1-.33-.65v-.79l-.19-5.06Z"/><path class="cls-4" d="M128.78,96.4c-.54,0-1-.53-1.45-1.6a18.86,18.86,0,0,1-.94-3.25c-.65-3.28-1-4.79-1.16-5.44l0,2.73a26.47,26.47,0,0,0,.57,6.19l0,.08-.44,1h-1.12l-.54-.6v-.1c0-.9,0-1.9,0-3s-.08-3.51-.25-7.15-.26-6.4-.26-8.2c0-1.39.68-1.68,1.25-1.68a4.45,4.45,0,0,1,2.79.88,3,3,0,0,1,1.17,2.54v2.11a4,4,0,0,1-.34,1.68c-.22.47-.47,1-.76,1.5l-.42.79c.11.51.3,1.44.55,2.78a26.3,26.3,0,0,0,1.92,6.64,2.38,2.38,0,0,1,.34,1,1.12,1.12,0,0,1-.24.72A.86.86,0,0,1,128.78,96.4Zm-3.54-19.14c0,.75,0,1.94.07,3.48,0,1.19,0,2.13,0,2.82a4.22,4.22,0,0,0,.63-1.42,9.32,9.32,0,0,0,.42-2.3,11.19,11.19,0,0,0,0-1.17,5,5,0,0,0-.18-.81,1,1,0,0,0-.9-.81Z"/><path class="cls-4" d="M125,85.59l0,3.25a27,27,0,0,0,.57,6.25l-.34.8h-.83l-.4-.44c0-.89,0-1.9,0-3s-.08-3.5-.26-7.16-.25-6.39-.25-8.19c0-1,.33-1.42,1-1.42a4.2,4.2,0,0,1,2.64.82,2.78,2.78,0,0,1,1.06,2.34v2.11a3.68,3.68,0,0,1-.32,1.57c-.21.47-.46,1-.74,1.49s-.44.81-.47.87c.11.49.3,1.45.57,2.87a25.91,25.91,0,0,0,1.94,6.71,2.13,2.13,0,0,1,.31.92.85.85,0,0,1-.18.55.58.58,0,0,1-.49.23c-.42,0-.82-.48-1.21-1.44a19.19,19.19,0,0,1-.93-3.2q-1.06-5.37-1.3-5.91Zm.11-8.82-.1.43q0,1.23.06,3.54c0,1.55.06,2.67.06,3.38a3,3,0,0,0,1.13-1.91,9.47,9.47,0,0,0,.43-2.37,11.86,11.86,0,0,0,0-1.2,4.49,4.49,0,0,0-.19-.86A1.35,1.35,0,0,0,125.09,76.77Z"/><path class="cls-4" d="M140.55,96.37a3.14,3.14,0,0,1-1.76-.72,4.24,4.24,0,0,1-1.38-1.59,22.69,22.69,0,0,1-.77-5.18c-.24-2.85-.37-5.38-.37-7.54a20.16,20.16,0,0,1,.18-3.85,5.34,5.34,0,0,1-.09-.95,3.62,3.62,0,0,1,1.39-3,5.24,5.24,0,0,1,3.31-1,2.69,2.69,0,0,1,1.24.35,1.16,1.16,0,0,1,.75,1c0,.14-.05.59-.73.59a.85.85,0,0,1-.52-.24c-.16-.12-.23-.12-.23-.12a.81.81,0,0,0-.25,0l-.08,0-.08,0a2,2,0,0,0-.64-.1,3.12,3.12,0,0,0-.81.14,2.62,2.62,0,0,0-.79.36,1.89,1.89,0,0,0-.51.57,4.08,4.08,0,0,0-.35.74,4.8,4.8,0,0,0-.19.9,19.1,19.1,0,0,0-.09,2l.09,2.11-.26,2.21c0,1.14.13,3.12.39,5.85.34,3.55.62,4.44.77,4.66a2.38,2.38,0,0,0,2.14,1.09,2.64,2.64,0,0,0,2.11-.77l.08-.09h.12a2.79,2.79,0,0,0,.62-.09l.15,0,.32.35v.1c0,1.09-.84,1.81-2.49,2.12A7.07,7.07,0,0,1,140.55,96.37Z"/><path class="cls-4" d="M137.61,80.88l-.26,2.17q0,1.77.39,5.91t.81,4.77a2.63,2.63,0,0,0,2.36,1.21,2.89,2.89,0,0,0,2.31-.86,3.37,3.37,0,0,0,.68-.1l.15.16c0,1-.76,1.58-2.28,1.87a6.47,6.47,0,0,1-1.22.1,2.88,2.88,0,0,1-1.61-.67,4.08,4.08,0,0,1-1.3-1.49,23.23,23.23,0,0,1-.74-5.09q-.37-4.27-.37-7.52a20,20,0,0,1,.19-3.84,4.75,4.75,0,0,1-.1-1,3.34,3.34,0,0,1,1.29-2.8,5,5,0,0,1,3.15-1,2.31,2.31,0,0,1,1.12.32c.41.21.61.47.61.79s-.15.33-.47.33A.69.69,0,0,1,142,74a.73.73,0,0,0-.39-.18,1.05,1.05,0,0,0-.33.06,2.18,2.18,0,0,0-.72-.12,3.23,3.23,0,0,0-.88.15,2.75,2.75,0,0,0-.86.4,2.06,2.06,0,0,0-.59.65,4.55,4.55,0,0,0-.37.78,4.63,4.63,0,0,0-.21,1,19.72,19.72,0,0,0-.09,2.06Z"/><path class="cls-4" d="M151.09,96.46c-2.53,0-3.77-3.69-3.77-11.29a41.39,41.39,0,0,1,.59-7.44c.32-1.67.84-2.49,1.59-2.49a.84.84,0,0,1,.56.23,1.2,1.2,0,0,0,.41.22,6.58,6.58,0,0,0,.82.2l.79.15c.48.08.92.5,1.33,1.29a13.33,13.33,0,0,1,1.29,6.58l-.08.24.08,3.47c0,4.64-.75,7.39-2.28,8.43A2.3,2.3,0,0,1,151.09,96.46ZM149.47,77a11.93,11.93,0,0,0-.3,2.43c-.19,2.68-.24,2.91-.25,3l-.15,2.77.06,2.35a22.19,22.19,0,0,0,.64,5.37,5.23,5.23,0,0,0,.66,1.61c.26.4.53.6.84.6a1.15,1.15,0,0,0,.85-.37,2.74,2.74,0,0,0,.65-1.12A13.83,13.83,0,0,0,152.9,92a12.46,12.46,0,0,0,.25-1.79c.07-1.06.11-2,.11-2.85l-.33-7-.15-.29.11-.25a3.53,3.53,0,0,0-.7-2,1.92,1.92,0,0,0-1.58-.86Z"/><path class="cls-4" d="M154.38,84.06l.06,3.57c0,4.49-.72,7.23-2.16,8.2a2,2,0,0,1-1.19.37q-3.51,0-3.51-11a40.72,40.72,0,0,1,.59-7.39c.29-1.52.73-2.28,1.33-2.28a.56.56,0,0,1,.38.16,1.48,1.48,0,0,0,.5.27,5.69,5.69,0,0,0,.86.21l.79.15c.4.07.78.45,1.15,1.16q1.26,2.13,1.26,6.46Zm-5.86,1.08.06,2.37a22.31,22.31,0,0,0,.64,5.43,5.54,5.54,0,0,0,.69,1.68,1.29,1.29,0,0,0,1.06.72,1.46,1.46,0,0,0,1-.44,3.25,3.25,0,0,0,.71-1.22,15.12,15.12,0,0,0,.43-1.6,12.91,12.91,0,0,0,.25-1.82c.08-1.07.12-2,.12-2.87l-.34-7.08-.11-.23.05-.15a3.6,3.6,0,0,0-.73-2.26,2.15,2.15,0,0,0-1.78-1h-1.26c-.17,0-.31.89-.44,2.67s-.21,2.77-.25,3Z"/><path class="cls-4" d="M161.84,96.46c-2.54,0-3.77-3.69-3.77-11.29a40.49,40.49,0,0,1,.59-7.44c.32-1.67.84-2.49,1.58-2.49a.84.84,0,0,1,.56.23,1.2,1.2,0,0,0,.41.22,6.81,6.81,0,0,0,.83.2l.78.15c.48.08.92.5,1.34,1.29.85,1.44,1.28,3.66,1.28,6.58l-.07.24.07,3.47c0,4.64-.74,7.39-2.27,8.43A2.32,2.32,0,0,1,161.84,96.46ZM160.21,77a12.9,12.9,0,0,0-.3,2.43c-.19,2.68-.23,2.91-.25,3l-.14,2.77.06,2.35a22.2,22.2,0,0,0,.63,5.37,5.23,5.23,0,0,0,.66,1.61,1.07,1.07,0,0,0,.84.6,1.17,1.17,0,0,0,.86-.37,2.73,2.73,0,0,0,.64-1.12,13.87,13.87,0,0,0,.44-1.56,14.15,14.15,0,0,0,.24-1.79c.08-1.06.12-2,.12-2.85l-.34-7-.14-.29.1-.25a3.53,3.53,0,0,0-.7-2,1.92,1.92,0,0,0-1.58-.86Z"/><path class="cls-4" d="M165.13,84.06l.06,3.57c0,4.49-.73,7.23-2.17,8.2a2,2,0,0,1-1.18.37q-3.53,0-3.52-11a40.72,40.72,0,0,1,.59-7.39c.29-1.52.74-2.28,1.33-2.28a.56.56,0,0,1,.39.16,1.39,1.39,0,0,0,.5.27,5.4,5.4,0,0,0,.86.21l.78.15c.4.07.79.45,1.16,1.16q1.26,2.13,1.26,6.46Zm-5.87,1.08.06,2.37a22.31,22.31,0,0,0,.64,5.43,5.55,5.55,0,0,0,.7,1.68,1.28,1.28,0,0,0,1.05.72,1.45,1.45,0,0,0,1-.44,3.12,3.12,0,0,0,.71-1.22c.17-.53.32-1.06.44-1.6a12.91,12.91,0,0,0,.25-1.82c.07-1.07.11-2,.11-2.87l-.33-7.08-.12-.23.06-.15a3.6,3.6,0,0,0-.73-2.26,2.18,2.18,0,0,0-1.79-1h-1.26c-.16,0-.31.89-.43,2.67s-.21,2.77-.25,3Z"/><path class="cls-4" d="M175.84,96.43c-.41,0-1-.33-1.93-2.86a48.37,48.37,0,0,1-1.67-5.6c-.33-1.43-.55-2.5-.65-3.26,0,.08-.09.17-.13.26-.25.5-.42.85-.52,1.07a5.24,5.24,0,0,0-.41,2l-.15,2.17V94l.2,1.69a.56.56,0,0,1-.26.5,1,1,0,0,1-.58.15.84.84,0,0,1-.59-.19.9.9,0,0,1-.22-.7V89.85l.28-3.79.29-5.79v-4.2l0,0a.76.76,0,0,1,.71-.49.89.89,0,0,1,.67.26.78.78,0,0,1,.26.57v.07l0,.06a3,3,0,0,0-.23,1.35q0,1-.06,3.12c0,1,0,1.75-.05,2.38.31-.53.87-1.54,1.84-3.46,2.11-4.16,2.26-4.16,2.48-4.16.86,0,1,.46,1.06.74v.09l-.06.08A42.25,42.25,0,0,0,173,82.09l0,1.86a22.59,22.59,0,0,0,1,4.91A21.07,21.07,0,0,0,176,94.31a2.46,2.46,0,0,1,.63,1.26C176.61,96.34,176.07,96.43,175.84,96.43Z"/><path class="cls-4" d="M172.7,82l-.06,1.92a22.5,22.5,0,0,0,1,5,20.78,20.78,0,0,0,2.11,5.53,2.39,2.39,0,0,1,.58,1.11q0,.6-.51.6c-.47,0-1-.9-1.69-2.69a47.85,47.85,0,0,1-1.66-5.57,25.88,25.88,0,0,1-.72-3.91l-.07-.12-.47,1c-.25.5-.43.86-.52,1.07a5.27,5.27,0,0,0-.44,2.12l-.15,2.15V94l.21,1.72a.3.3,0,0,1-.16.26.74.74,0,0,1-.43.1.66.66,0,0,1-.42-.12.71.71,0,0,1-.13-.51V89.85l.27-3.77.3-5.8V76.13a.49.49,0,0,1,.47-.34.66.66,0,0,1,.49.18.54.54,0,0,1,.18.39,3.14,3.14,0,0,0-.27,1.48c0,.66,0,1.7,0,3.12s-.06,2.47-.06,3.17A23.22,23.22,0,0,0,172.85,80a22.42,22.42,0,0,1,2.25-4c.5,0,.77.17.8.5A40.73,40.73,0,0,0,172.7,82Z"/><path class="cls-4" d="M180.59,96.22A.78.78,0,0,1,180,96a1.06,1.06,0,0,1-.23-.62c0-.18,0-.49,0-.93l.31-6.33L180,85.42l.17-7.18c0-.69,0-1.24,0-1.63l-.12-.16v-.26c0-.94.62-1,.88-1a6.29,6.29,0,0,1,1.62.37c.94.29,1.32.53,1.33.86v.07a5.85,5.85,0,0,1,.72,1.74,14.1,14.1,0,0,1,.19,2.72,9.79,9.79,0,0,1-.38,2.83h0l-.12.36a5.71,5.71,0,0,1-.49.83l-.29.44a3.42,3.42,0,0,1,.83,1.24,5.88,5.88,0,0,1,.44,1.57c.06.45.1,1,.13,1.6l0,.78V91A5.3,5.3,0,0,1,183,95.44,3.92,3.92,0,0,1,180.59,96.22Zm.9-10.09c-.09,1.38-.13,2.62-.13,3.68a17.19,17.19,0,0,0,.08,2.14l0,.09-.05.08a3.42,3.42,0,0,0-.14,1.31l0,1.09a2.11,2.11,0,0,0,1.45-.93,3.31,3.31,0,0,0,.73-2c0-.23,0-.4,0-.56s0-.44,0-.85-.05-.75-.1-1.08a7.66,7.66,0,0,0-.24-1.08,4.82,4.82,0,0,0-.41-1A1.65,1.65,0,0,0,181.49,86.13Zm0-1.57c1.14,0,1.72-1.26,1.72-3.74,0-.34,0-.92-.08-1.74l-.06-.15c-.12-1.49-.53-2.24-1.24-2.25-.07,0-.41.46-.41,3.68l0,1.6,0,2.1v.36l0,.14Z"/><path class="cls-4" d="M180.27,76.19c0-.52.21-.78.62-.78a6.69,6.69,0,0,1,1.55.35c.75.24,1.14.45,1.15.63a.23.23,0,0,0,0,.09,5.31,5.31,0,0,1,.74,1.76,13.52,13.52,0,0,1,.19,2.67A9,9,0,0,1,184,84h0a5,5,0,0,1-.46.78c-.23.34-.37.55-.42.64a3,3,0,0,1,.93,1.29,6.21,6.21,0,0,1,.43,1.5c0,.44.09,1,.12,1.58l0,.78V91a5,5,0,0,1-1.79,4.24,3.61,3.61,0,0,1-2.29.74.52.52,0,0,1-.42-.19.76.76,0,0,1-.17-.46c0-.18,0-.49,0-.92l.31-6.32-.06-2.66.17-7.17q0-1.14,0-1.74l-.11-.15ZM181,93.43l0,1.37a2.31,2.31,0,0,0,1.9-1,3.58,3.58,0,0,0,.79-2.2v0c0-.17,0-.34,0-.51s0-.45,0-.85,0-.78-.1-1.12a7,7,0,0,0-.26-1.11,4.4,4.4,0,0,0-.43-1,1.88,1.88,0,0,0-1.69-1c-.1,1.49-.15,2.81-.15,4a15.59,15.59,0,0,0,.09,2.19A3.55,3.55,0,0,0,181,93.43ZM181.19,82l0,2.09v.36l.12.4h.21c1.32,0,2-1.33,2-4,0-.36,0-1-.09-1.85l-.06-.06c-.12-1.66-.63-2.49-1.5-2.49-.44,0-.66,1.31-.66,3.94Z"/><path class="cls-4" d="M192,96.46c-2.53,0-3.77-3.69-3.77-11.29a41.39,41.39,0,0,1,.59-7.44c.33-1.67.84-2.49,1.59-2.49a.84.84,0,0,1,.56.23,1.2,1.2,0,0,0,.41.22,6.58,6.58,0,0,0,.82.2L193,76c.48.08.92.5,1.33,1.29.86,1.44,1.29,3.66,1.29,6.58l-.08.24.08,3.47c0,4.64-.74,7.39-2.28,8.43A2.3,2.3,0,0,1,192,96.46ZM190.41,77a11.93,11.93,0,0,0-.3,2.43c-.19,2.68-.24,2.91-.25,3l-.14,2.77.06,2.35a22.2,22.2,0,0,0,.63,5.37,5.23,5.23,0,0,0,.66,1.61,1.07,1.07,0,0,0,.84.6,1.17,1.17,0,0,0,.86-.37,2.85,2.85,0,0,0,.64-1.12,13.83,13.83,0,0,0,.43-1.56,12.46,12.46,0,0,0,.25-1.79c.07-1.06.11-2,.11-2.85l-.33-7-.14-.29.1-.25a3.53,3.53,0,0,0-.7-2,1.92,1.92,0,0,0-1.58-.86Z"/><path class="cls-4" d="M195.32,84.06l.06,3.57c0,4.49-.72,7.23-2.16,8.2a2,2,0,0,1-1.19.37q-3.51,0-3.51-11a40.72,40.72,0,0,1,.59-7.39c.29-1.52.73-2.28,1.33-2.28a.58.58,0,0,1,.39.16,1.34,1.34,0,0,0,.49.27,5.57,5.57,0,0,0,.87.21l.78.15c.4.07.78.45,1.16,1.16a13.12,13.12,0,0,1,1.25,6.46Zm-5.86,1.08.06,2.37a22.31,22.31,0,0,0,.64,5.43,5.55,5.55,0,0,0,.7,1.68,1.27,1.27,0,0,0,1,.72,1.46,1.46,0,0,0,1-.44,3.25,3.25,0,0,0,.71-1.22c.17-.53.32-1.06.44-1.6a13,13,0,0,0,.24-1.82c.08-1.07.12-2,.12-2.87l-.33-7.08-.12-.23.06-.15a3.66,3.66,0,0,0-.73-2.26,2.18,2.18,0,0,0-1.79-1h-1.26c-.16,0-.31.89-.44,2.67s-.21,2.77-.25,3Z"/><path class="cls-4" d="M202.78,96.46c-2.54,0-3.77-3.69-3.77-11.29a41.39,41.39,0,0,1,.59-7.44c.32-1.67.84-2.49,1.58-2.49a.84.84,0,0,1,.56.23,1.42,1.42,0,0,0,.41.22,6.81,6.81,0,0,0,.83.2l.78.15c.48.08.92.5,1.34,1.29a13.33,13.33,0,0,1,1.29,6.58l-.08.24.08,3.47c0,4.64-.75,7.39-2.28,8.43A2.3,2.3,0,0,1,202.78,96.46ZM201.16,77a11.93,11.93,0,0,0-.3,2.43c-.2,2.68-.24,2.91-.26,3l-.14,2.77.06,2.35a21.71,21.71,0,0,0,.64,5.37,5,5,0,0,0,.66,1.61c.26.4.53.6.83.6a1.17,1.17,0,0,0,.86-.37,2.86,2.86,0,0,0,.65-1.12c.17-.51.31-1,.43-1.56a14.15,14.15,0,0,0,.24-1.79c.08-1.06.12-2,.12-2.85l-.34-7-.14-.29.1-.25a3.53,3.53,0,0,0-.7-2,1.91,1.91,0,0,0-1.58-.86Z"/><path class="cls-4" d="M206.07,84.06l.06,3.57c0,4.49-.72,7.23-2.17,8.2a2,2,0,0,1-1.18.37q-3.51,0-3.51-11a40.8,40.8,0,0,1,.58-7.39c.29-1.52.74-2.28,1.33-2.28a.56.56,0,0,1,.39.16,1.39,1.39,0,0,0,.5.27,5.69,5.69,0,0,0,.86.21l.78.15c.4.07.79.45,1.16,1.16q1.26,2.13,1.26,6.46Zm-5.87,1.08.06,2.37a22.82,22.82,0,0,0,.64,5.43,5.55,5.55,0,0,0,.7,1.68,1.29,1.29,0,0,0,1.05.72,1.45,1.45,0,0,0,1-.44,3,3,0,0,0,.71-1.22,15.18,15.18,0,0,0,.44-1.6,12.91,12.91,0,0,0,.25-1.82c.08-1.07.12-2,.12-2.87l-.34-7.08-.12-.23.06-.15a3.6,3.6,0,0,0-.73-2.26,2.17,2.17,0,0,0-1.79-1H201c-.17,0-.32.89-.44,2.67s-.21,2.77-.25,3Z"/><path class="cls-4" d="M216.78,96.43c-.41,0-1-.33-1.93-2.86a48.37,48.37,0,0,1-1.67-5.6c-.33-1.43-.55-2.5-.65-3.26l-.13.26c-.25.5-.42.85-.52,1.07a5.24,5.24,0,0,0-.41,2l-.15,2.17V94l.2,1.69a.54.54,0,0,1-.26.5,1,1,0,0,1-.58.15.84.84,0,0,1-.59-.19.9.9,0,0,1-.22-.7V89.85l.28-3.79.29-5.79v-4.2l0,0a.78.78,0,0,1,.71-.49.93.93,0,0,1,.68.26.81.81,0,0,1,.25.57v.07l0,.06a2.85,2.85,0,0,0-.24,1.35c0,.67,0,1.71-.05,3.12,0,1-.05,1.75-.06,2.38.31-.53.87-1.54,1.84-3.46,2.11-4.16,2.26-4.16,2.48-4.16.86,0,1,.46,1.06.74v.09l-.05.08a41.21,41.21,0,0,0-3.17,5.46l0,1.86a22.59,22.59,0,0,0,1,4.91,21.07,21.07,0,0,0,2.07,5.45,2.46,2.46,0,0,1,.63,1.26C217.55,96.34,217,96.43,216.78,96.43Z"/><path class="cls-4" d="M213.64,82l-.06,1.92a22.5,22.5,0,0,0,1,5,20.78,20.78,0,0,0,2.11,5.53,2.45,2.45,0,0,1,.59,1.11c0,.4-.18.6-.52.6s-1-.9-1.69-2.69a49.88,49.88,0,0,1-1.66-5.57,25.44,25.44,0,0,1-.71-3.91l-.08-.12c-.06.15-.22.47-.47,1s-.42.86-.52,1.07a5.44,5.44,0,0,0-.44,2.12l-.15,2.15V94l.21,1.72a.3.3,0,0,1-.16.26.74.74,0,0,1-.43.1.61.61,0,0,1-.41-.12.66.66,0,0,1-.14-.51V89.85l.28-3.77.29-5.8V76.13a.5.5,0,0,1,.47-.34.64.64,0,0,1,.49.18.54.54,0,0,1,.18.39,3.16,3.16,0,0,0-.26,1.48q0,1-.06,3.12c0,1.41-.06,2.47-.06,3.17A23.22,23.22,0,0,0,213.79,80,22.42,22.42,0,0,1,216,76c.5,0,.77.17.8.5A41.81,41.81,0,0,0,213.64,82Z"/></g></g></svg>